<svg xmlns="http://www.w3.org/2000/svg" viewBox="0 0 219.94 71.63"><defs><style>.cls-1{fill:#ab0033;}.cls-2{fill:#f18a00;}</style></defs><title>Asset 7</title><g id="Layer_2" data-name="Layer 2"><g id="Layer_1-2" data-name="Layer 1"><circle class="cls-1" cx="191.82" cy="10.29" r="3.68"/><circle class="cls-1" cx="68.27" cy="10.29" r="3.68"/><path class="cls-1" d="M100,8.76a3.74,3.74,0,0,0-1.1-1.38,3.82,3.82,0,0,0-1.49-.67A6.05,6.05,0,0,0,96,6.61H94.1L92.58,19a13.2,13.2,0,0,0-1.44-1.25,16.74,16.74,0,0,0-1.82-.94,7.46,7.46,0,0,0-2.48-.59,12.13,12.13,0,0,0-4.56.54,12.49,12.49,0,0,0-4.39,2.38,15.17,15.17,0,0,0-3.52,4.38,17.65,17.65,0,0,0-2,6.45,13.38,13.38,0,0,0,.35,5.32,12.28,12.28,0,0,0,2.16,4.34,11,11,0,0,0,3.59,3.08,5,5,0,0,0,1.24.6,14.16,14.16,0,0,0,4,.45,9.61,9.61,0,0,0,4.16-1,10.48,10.48,0,0,0,2.36-1.68h0l0,.1a3.55,3.55,0,0,0,1.1,1.38,3.63,3.63,0,0,0,1.5.65,5.67,5.67,0,0,0,1.46.08h1.86l1.57-12.68.09-.65,2.31-18.88A3.71,3.71,0,0,0,100,8.76ZM91.07,29.4a13.91,13.91,0,0,1-.81,4.52,9.06,9.06,0,0,1-1.66,2.84,5.46,5.46,0,0,1-2,1.48,5.83,5.83,0,0,1-1.76.49,5.92,5.92,0,0,1-1.77-.2,3.94,3.94,0,0,1-1.88-1.14,7.07,7.07,0,0,1-1.45-2.56,12.2,12.2,0,0,1-.48-4.4,13.91,13.91,0,0,1,.81-4.52,8.83,8.83,0,0,1,1.66-2.82,5.92,5.92,0,0,1,2-1.45,6.05,6.05,0,0,1,1.77-.48,5.64,5.64,0,0,1,1.77.2,4.09,4.09,0,0,1,1.88,1.11A6.74,6.74,0,0,1,90.59,25,12.2,12.2,0,0,1,91.07,29.4Z"/><path class="cls-1" d="M69,17a3.65,3.65,0,0,0-1.5-.66A6.16,6.16,0,0,0,66,16.3H64.18L61.42,38.82a3.78,3.78,0,0,0,.95,3.4,3.56,3.56,0,0,0,1.53.92,5.91,5.91,0,0,0,1.68.17h2l2.77-22.57a3.66,3.66,0,0,0-.25-2.32A3.55,3.55,0,0,0,69,17Z"/><path class="cls-1" d="M131.65,6.93c0-.08-.11-.31-.11-.31H107.45a3.53,3.53,0,0,0-2.07.52,3.31,3.31,0,0,0-1.2,1.18,4.6,4.6,0,0,0-.52,1.4c-.1.49-.33,2.48-.36,2.74h20.19c-2.17,2.14-4.63,4.56-6.69,6.54l-3.27,3.17-3.28,3.23q-1.6,1.59-3.09,3L104.5,31a17.31,17.31,0,0,0-3.15,4.15A14.88,14.88,0,0,0,99.81,41a12,12,0,0,0,.1,2.26h24.41a3.26,3.26,0,0,0,1.84-.49,3.31,3.31,0,0,0,1.2-1.18,4.6,4.6,0,0,0,.52-1.4,11.82,11.82,0,0,0,.19-1.38c0-.43.16-1.23.2-1.56H106.69c2.11-2,4.41-4.14,6.43-6.12,1.06-1,2.15-2.07,3.27-3.17l3.31-3.23,3-2.94,2.66-2.61A38.76,38.76,0,0,0,129.24,15a14.82,14.82,0,0,0,1.84-3.14,8.07,8.07,0,0,0,.67-2.64A7,7,0,0,0,131.65,6.93Z"/><path class="cls-1" d="M192.53,17a3.89,3.89,0,0,0-1.51-.66,6.12,6.12,0,0,0-1.46-.08h-1.85L185,38.81a4.16,4.16,0,0,0,.06,1.84,4.09,4.09,0,0,0,.89,1.56,3.5,3.5,0,0,0,1.54.92,5.78,5.78,0,0,0,1.67.18h2l2.77-22.58a3.65,3.65,0,0,0-1.34-3.7Z"/><path class="cls-1" d="M182.42,23.57A10.78,10.78,0,0,0,180,19.18a9.08,9.08,0,0,0-3.84-2.39,11.57,11.57,0,0,0-4.46-.54,9.7,9.7,0,0,0-2.31.51,14.54,14.54,0,0,0-2,.86,11.2,11.2,0,0,0-1.51.94c-.42.3-.71.53-.89.68l0-.18a.77.77,0,0,0-.1-.35c0-.11-.09-.22-.14-.33a3.62,3.62,0,0,0-2.58-2.05,8.85,8.85,0,0,0-1.3-.11h-2s-2.77,22.61-2.77,22.62a3.64,3.64,0,0,0,1.34,3.69,3.68,3.68,0,0,0,1.49.67,5.62,5.62,0,0,0,1.31.1h2l1.67-13.62a13.49,13.49,0,0,1,1.08-4.1A8.4,8.4,0,0,1,166.8,23a6,6,0,0,1,2.28-1.37,6.93,6.93,0,0,1,2.43-.34,6,6,0,0,1,2.16.49,3.56,3.56,0,0,1,1.62,1.45,6.66,6.66,0,0,1,.85,2.76,18.18,18.18,0,0,1-.1,4.36l-1,8.49h0a3.69,3.69,0,0,0,.25,2.33,3.62,3.62,0,0,0,2.58,2.05,5.66,5.66,0,0,0,1.31.1h2L182.79,30A15.45,15.45,0,0,0,182.42,23.57Z"/><path class="cls-1" d="M153.9,20.73a6.67,6.67,0,0,0-2.52-3.25,9,9,0,0,0-3.47-1.31,26.05,26.05,0,0,0-5.5-.49c-3.17,0-5.83.38-6.69.9l-.33.17a3.5,3.5,0,0,0-1.2,1.19,4.66,4.66,0,0,0-.52,1.41,10,10,0,0,0-.19,1.39c0,.5-.06.86-.06.86l.13,0a28.8,28.8,0,0,1,5.92-.51,27.67,27.67,0,0,1,6.18.57A3,3,0,0,1,147.71,23a4.81,4.81,0,0,1,.64,2.27,9.07,9.07,0,0,1-.35,2.15q-7.84-1.26-12.59.49a7.94,7.94,0,0,0-5.48,6.76,8.06,8.06,0,0,0,.32,4.14,6.84,6.84,0,0,0,2.07,2.88,8.88,8.88,0,0,0,3.34,1.66,14.23,14.23,0,0,0,4.05.45,9.34,9.34,0,0,0,4.17-1,10.44,10.44,0,0,0,2.38-1.68l.09-.08a.69.69,0,0,0,.07.15A3.56,3.56,0,0,0,149,43.2a5.7,5.7,0,0,0,1.47.1h1.85l2-16.09A13.45,13.45,0,0,0,153.9,20.73Zm-7.28,14.39A6.06,6.06,0,0,1,145,37.31a5.59,5.59,0,0,1-2.16,1.12,9.2,9.2,0,0,1-2.38.31,9.64,9.64,0,0,1-1.83-.17,3.92,3.92,0,0,1-1.47-.6,2.47,2.47,0,0,1-.88-1.17,3.86,3.86,0,0,1-.14-1.88A3.94,3.94,0,0,1,136.8,33a5.15,5.15,0,0,1,1.32-1.23,5.38,5.38,0,0,1,1.63-.68,11.18,11.18,0,0,1,1.66-.26,17.54,17.54,0,0,1,2.44.06c.76.08,1.39.15,1.92.23a16.26,16.26,0,0,1,1.72.4A11,11,0,0,1,146.62,35.12Z"/><path class="cls-1" d="M219.35,20.73a6.6,6.6,0,0,0-2.51-3.25,9,9,0,0,0-3.47-1.31,26.16,26.16,0,0,0-5.51-.49c-3.16,0-5.83.38-6.68.9l-.33.17a3.42,3.42,0,0,0-1.2,1.19,4.41,4.41,0,0,0-.52,1.41,11.48,11.48,0,0,0-.2,1.39c0,.5-.06.86-.06.86l.13,0a29,29,0,0,1,5.93-.51,27.67,27.67,0,0,1,6.18.57A3,3,0,0,1,213.17,23a4.88,4.88,0,0,1,.63,2.27,8.56,8.56,0,0,1-.34,2.15q-7.85-1.26-12.59.49a7.93,7.93,0,0,0-5.48,6.76,8.06,8.06,0,0,0,.32,4.14,6.68,6.68,0,0,0,2.07,2.88,8.84,8.84,0,0,0,3.33,1.66,14.26,14.26,0,0,0,4.06.45,9.34,9.34,0,0,0,4.17-1,10.67,10.67,0,0,0,2.38-1.68l.08-.08.08.15a3.56,3.56,0,0,0,2.58,2.05,5.7,5.7,0,0,0,1.47.1h1.85l2-16.09A13.43,13.43,0,0,0,219.35,20.73Zm-7.27,14.39a6.18,6.18,0,0,1-1.64,2.19,5.73,5.73,0,0,1-2.16,1.12,9.2,9.2,0,0,1-2.38.31,9.83,9.83,0,0,1-1.84-.17,3.94,3.94,0,0,1-1.46-.6,2.49,2.49,0,0,1-.89-1.17,4.12,4.12,0,0,1-.14-1.88,4.05,4.05,0,0,1,.69-1.89,5.15,5.15,0,0,1,1.32-1.23,5.38,5.38,0,0,1,1.63-.68,11,11,0,0,1,1.66-.26,17.58,17.58,0,0,1,2.44.06c.75.08,1.39.15,1.92.23a16.26,16.26,0,0,1,1.72.4A11,11,0,0,1,212.08,35.12Z"/><path class="cls-1" d="M16.94,43.46,21.47,6.61h2.76a4.78,4.78,0,0,1,1,.1A4.34,4.34,0,0,1,27,7.48a4.19,4.19,0,0,1,1.27,1.59,6.17,6.17,0,0,1,.21,3.22l-1.13,9.22L41.5,7.35l-.28-.06A24.4,24.4,0,0,1,36.75,6a22.25,22.25,0,0,1-3.81-1.92,26.67,26.67,0,0,0-2.51-1.44A27,27,0,0,0,27,1.21,24.86,24.86,0,0,0,4.8,4.67L0,43.59a1.6,1.6,0,0,0,1.9,1.93,7.72,7.72,0,0,0,.84-.34,24.74,24.74,0,0,1,13.71-1.8Z"/><path class="cls-2" d="M61,3.2a1.57,1.57,0,0,0-1.1.3c-.7.46-1.35.87-2,1.22-1,.56-1.88.93-1.88.93-.5.21-.89.37-1.32.53-.59.23-1.16.41-1.66.56L34.63,25.15a2.08,2.08,0,0,1,.37.28l16,16a8.4,8.4,0,0,1-1.69,1.48,6.08,6.08,0,0,1-3.12.85c-4.26,0-8.15-4.3-8.15-4.3l-9.21-9.21L26.54,28,24.33,46l.45.24,1,.58c.25.15,1.33.67,1.31.65.38.18.77.34,1.17.51.8.31,1.52.54,2.25.77a24.35,24.35,0,0,0,2.83.65s.35.07,1,.15a24.76,24.76,0,0,0,2.93.19c.53,0,1.11,0,1.75,0s1.1-.07,1.71-.15,1-.15,1.46-.24l1-.22A25.89,25.89,0,0,0,46.61,48c.53-.21,1.21-.51,1.63-.71s1.13-.57,1.67-.88c.24-.15,1.14-.66,2.17-1.42a26.37,26.37,0,0,0,2.46-2,25.93,25.93,0,0,0,2.4-2.62c.13-.17,1-1.35,1.29-1.78l4.15-33.7A1.53,1.53,0,0,0,62,3.73,1.53,1.53,0,0,0,61,3.2Z"/><path class="cls-1" d="M82.74,55.73a2.68,2.68,0,0,1,.11.64q0,.33,0,.63l-.06.4,0,0a11.6,11.6,0,0,0-2.35-.79c-1.14-.25-2-.41-2.48-.48a4.32,4.32,0,0,0-.73-.06,5.46,5.46,0,0,0-1.61.24c-.68.22-1,.62-1,1.18a1,1,0,0,0,.59.79,10.13,10.13,0,0,0,1.52.63l1.94.66a7.18,7.18,0,0,1,1.82.9,5.27,5.27,0,0,1,1.28,1.38,3,3,0,0,1,.3,1.3,3.06,3.06,0,0,1-.09.74A5,5,0,0,1,81.49,65a4,4,0,0,1-.65,1,5.16,5.16,0,0,1-.82.71,6,6,0,0,1-.93.54,6.44,6.44,0,0,1-2.06.52,2.6,2.6,0,0,1-.61.07h-.2A9.57,9.57,0,0,1,74,67.58a10.14,10.14,0,0,1-1.67-.48,2.68,2.68,0,0,1-1-.51l-.13-.11a1.7,1.7,0,0,1-.39-.64,2.5,2.5,0,0,1-.09-.66v0c0-.21,0-.41,0-.63l.06-.39,0,0a10.49,10.49,0,0,0,2.35.79,20.11,20.11,0,0,0,3.28.56A3.94,3.94,0,0,0,78,65.16a1.77,1.77,0,0,0,1.09-1.36v-.06a.89.89,0,0,0-.16-.5.91.91,0,0,0-.4-.36A7.5,7.5,0,0,0,77,62.22l-1.91-.67a7.59,7.59,0,0,1-1.83-.84,3.48,3.48,0,0,1-.73-.58A3.84,3.84,0,0,1,72,59.4a2.77,2.77,0,0,1-.32-1.32,2.88,2.88,0,0,1,.07-.65,3.44,3.44,0,0,1,.35-1.13,4.32,4.32,0,0,1,.63-1c.11-.1.24-.2.38-.31a3.83,3.83,0,0,1,.46-.33l.48-.28a4.1,4.1,0,0,1,.46-.19,6.24,6.24,0,0,1,2.06-.41c.22,0,.42,0,.63,0,.38,0,.76,0,1.15.05h.19c.36,0,.72.09,1.08.16l.16,0,.48.12a4.79,4.79,0,0,1,2,.85l.13.1A1.6,1.6,0,0,1,82.74,55.73Z"/><path class="cls-1" d="M85.86,57.32a1.58,1.58,0,0,1,1,.29,1.34,1.34,0,0,1,.54,1.11,1.15,1.15,0,0,1,0,.31l-1,8.65h-.85a1.83,1.83,0,0,1-.79-.16,1.17,1.17,0,0,1-.55-.48,1.47,1.47,0,0,1-.2-.77,1,1,0,0,1,0-.29L85,57.34h.7Zm-.34-3.2a1.36,1.36,0,0,1,1-.42,1.42,1.42,0,0,1,1.4,1.41,1.4,1.4,0,0,1-1.4,1.41,1.4,1.4,0,0,1-1.41-1.41A1.35,1.35,0,0,1,85.52,54.12Z"/><path class="cls-1" d="M97.84,58.49A4.57,4.57,0,0,1,99,61.72a5.42,5.42,0,0,1-.07.89l-.63,5.06h-.84a1.56,1.56,0,0,1-1.08-.39,1.26,1.26,0,0,1-.44-1s0-.13,0-.31l.4-3.22a6.86,6.86,0,0,0,.07-1c0-1.63-.64-2.45-1.92-2.45a2.32,2.32,0,0,0-1.45.45,3,3,0,0,0-.91,1.2,5.31,5.31,0,0,0-.42,1.56l-.62,5.19h-.86a1.58,1.58,0,0,1-1.09-.39,1.31,1.31,0,0,1-.44-1,1,1,0,0,1,0-.29l1.06-8.62h.86a1.7,1.7,0,0,1,.84.22,1.3,1.3,0,0,1,.54.6c0,.08,0,.12,0,.13a.28.28,0,0,1,0,.13v.07a4.68,4.68,0,0,1,1.66-.95,4,4,0,0,1,4,.93Z"/><path class="cls-1" d="M108.48,58.13a2,2,0,0,1,1.35-.5h.84c-.06.47-.14,1.06-.23,1.79s-.24,1.82-.42,3.27-.3,2.44-.37,3a10.52,10.52,0,0,1-.67,3.08,3.8,3.8,0,0,1-.51.83,8.18,8.18,0,0,1-.75.81A5.08,5.08,0,0,1,107,71a6.12,6.12,0,0,1-3.23.68h-.16a6,6,0,0,1-2.63-.4,1.21,1.21,0,0,1-.53-.66,4.85,4.85,0,0,1-.21-1.15h.06a10.85,10.85,0,0,0,2,.2h.41a8.06,8.06,0,0,0,2.1-.21,2.93,2.93,0,0,0,1.18-.74,3.43,3.43,0,0,0,.79-1.2h0a3.1,3.1,0,0,1-.63.21q-.37.09-.75.15a5.73,5.73,0,0,1-.66,0h0a.11.11,0,0,1-.06,0,3.92,3.92,0,0,1-1.83-.44,4.4,4.4,0,0,1-1.39-1.12,4.65,4.65,0,0,1-1-3,6,6,0,0,1,.5-2.48,6.11,6.11,0,0,1,1.32-1.95,6.35,6.35,0,0,1,1.7-1.12,5,5,0,0,1,2.07-.44h.11a4.14,4.14,0,0,1,.91.12,3.92,3.92,0,0,1,.88.3A3.54,3.54,0,0,1,108.48,58.13ZM104.72,66a2.07,2.07,0,0,0,1.41-.52,4.63,4.63,0,0,0,1.42-2.71,4.81,4.81,0,0,0,.14-1.2,3.33,3.33,0,0,0-.17-1.14,1.9,1.9,0,0,0-.54-.82,1.63,1.63,0,0,0-.93-.39h-.11a2.25,2.25,0,0,0-1.42.49,3.79,3.79,0,0,0-.89,1.15,5.56,5.56,0,0,0-.51,1.52,5.22,5.22,0,0,0-.16,1.25,3,3,0,0,0,.41,1.63,1.58,1.58,0,0,0,1.26.72Z"/><path class="cls-1" d="M118.88,67.7a1.47,1.47,0,0,1-1.44-.86,6.51,6.51,0,0,1-.91.74,4.37,4.37,0,0,1-4.34-.5,2.59,2.59,0,0,1-1-2.1,2.48,2.48,0,0,1,.06-.54,3.16,3.16,0,0,1,2.06-2.54,9.52,9.52,0,0,1,4.71-.18,3.3,3.3,0,0,0,.15-.81,1.91,1.91,0,0,0-.26-.86,1.26,1.26,0,0,0-.33-.32.88.88,0,0,0-.44-.16,9.24,9.24,0,0,0-2.09-.24l-.22,0h-.09a11.73,11.73,0,0,0-2.13.2h0a3.2,3.2,0,0,1,.3-1.38,1.32,1.32,0,0,1,.56-.5,6,6,0,0,1,2.52-.33l.22,0a6,6,0,0,1,3.15.67,3,3,0,0,1,.94,1.23,5,5,0,0,1,.14,2.44l-.74,6h-.82Zm-5.29-2.9c0,.79.55,1.18,1.65,1.18a2.31,2.31,0,0,0,2.33-1.36,4,4,0,0,0,.34-1.35,7.92,7.92,0,0,0-2-.25,2.32,2.32,0,0,0-2,.81A1.56,1.56,0,0,0,113.59,64.8Z"/><path class="cls-1" d="M124.88,58a5.56,5.56,0,0,1,1.21-.47,5.23,5.23,0,0,1,1.32-.2h.09a4,4,0,0,1,1.84.44,4.59,4.59,0,0,1,1.4,1.12,4.65,4.65,0,0,1,1,3,6.4,6.4,0,0,1-1.86,4.44,5.38,5.38,0,0,1-1.68,1.14,7.27,7.27,0,0,1-1,.28,4.74,4.74,0,0,1-1,.13h-.09a4.14,4.14,0,0,1-1.08-.17,4,4,0,0,1-1-.39l-.54,4.29h-.82a1.62,1.62,0,0,1-1.12-.38,1.33,1.33,0,0,1-.42-1,1.5,1.5,0,0,1,0-.29v0c0-.12,0-.23,0-.34l1.51-12.24h.86A1.39,1.39,0,0,1,124.88,58Zm3.55,6.5a6,6,0,0,0,.76-2.88,2.91,2.91,0,0,0-.42-1.64,1.59,1.59,0,0,0-1.25-.73h-.09a2.31,2.31,0,0,0-1.45.47,3.7,3.7,0,0,0-.89,1.17,5.24,5.24,0,0,0-.51,1.52,4.87,4.87,0,0,0-.16,1.25,2.87,2.87,0,0,0,.42,1.62,1.62,1.62,0,0,0,1.26.73h.09a2.23,2.23,0,0,0,1.44-.5A3.76,3.76,0,0,0,128.43,64.49Z"/><path class="cls-1" d="M141.3,58.9a4.66,4.66,0,0,1,1,3,6.24,6.24,0,0,1-.66,2.78,6,6,0,0,1-1.2,1.67,5.26,5.26,0,0,1-1.69,1.14,4.89,4.89,0,0,1-1,.3,5.45,5.45,0,0,1-1.05.12h-.09a3.93,3.93,0,0,1-1.84-.44,4.47,4.47,0,0,1-1.4-1.12,4.61,4.61,0,0,1-1-3,6.3,6.3,0,0,1,.66-2.78,6.57,6.57,0,0,1,.53-.87,6.73,6.73,0,0,1,.65-.8,6.07,6.07,0,0,1,1.69-1.12,5,5,0,0,1,2.08-.44h.09a4,4,0,0,1,1.84.44A4.44,4.44,0,0,1,141.3,58.9ZM139,64.53a6,6,0,0,0,.77-2.92,2.91,2.91,0,0,0-.41-1.64,1.56,1.56,0,0,0-1.23-.73H138a2.16,2.16,0,0,0-1.42.5,4,4,0,0,0-.89,1.17,7.37,7.37,0,0,0-.69,2.78,2.89,2.89,0,0,0,.42,1.62,1.61,1.61,0,0,0,1.25.73h.09a2.2,2.2,0,0,0,1.44-.52A3.42,3.42,0,0,0,139,64.53Z"/><path class="cls-1" d="M145,57.38a1.6,1.6,0,0,1,1,.31,1.3,1.3,0,0,1,.49.84,3.63,3.63,0,0,1,1.33-1,1.17,1.17,0,0,1,.48-.15,4.9,4.9,0,0,1,.78-.1,2.77,2.77,0,0,1,.6.06l.4.11a2.67,2.67,0,0,1,.34.17,1.13,1.13,0,0,1,.53.64,4.44,4.44,0,0,1,.2,1.15h-.05a12.37,12.37,0,0,0-2.42-.27,3.07,3.07,0,0,0-1,.17,1.89,1.89,0,0,0-.7.53,4.91,4.91,0,0,0-.86,2.6l-.63,5.16h-.78c-1.07,0-1.6-.43-1.6-1.29V66.2a.72.72,0,0,1,0-.13.82.82,0,0,0,0-.14l1.06-8.53h.7A.32.32,0,0,1,145,57.38Z"/><path class="cls-1" d="M157.54,57.34a4.74,4.74,0,0,1,2.21.5,2.91,2.91,0,0,1,1.36,1.37,2.46,2.46,0,0,1,.21,1,3.39,3.39,0,0,1-.52,1.86,3.07,3.07,0,0,1-1.31,1.2,5.77,5.77,0,0,1-2.5.53,11.52,11.52,0,0,1-2.62-.31,4,4,0,0,0-.09.68,1.7,1.7,0,0,0,.23.86,1.1,1.1,0,0,0,.33.31,1.46,1.46,0,0,0,.44.18,10.61,10.61,0,0,0,2.1.21h.41a10,10,0,0,0,2.05-.2h0a5.14,5.14,0,0,1-.21,1.17,1.21,1.21,0,0,1-.53.68,5.59,5.59,0,0,1-2.38.39c-.19,0-.51,0-1,0a4.09,4.09,0,0,1-3.35-1.36,4.5,4.5,0,0,1-.93-2.94,5.67,5.67,0,0,1,.07-.91,6,6,0,0,1,1.17-3.08,5.22,5.22,0,0,1,2.52-1.8A7.48,7.48,0,0,1,157.54,57.34Zm-2.78,4.27a7.18,7.18,0,0,0,2,.27,2.34,2.34,0,0,0,2-.83,1.53,1.53,0,0,0,.28-.93c0-.81-.55-1.22-1.65-1.22a2.44,2.44,0,0,0-1.91.73A3.12,3.12,0,0,0,154.76,61.61Z"/></g></g></svg>